<svg width="20" height="20" viewBox="0 0 20 20" fill="none" xmlns="http://www.w3.org/2000/svg">
<path d="M14.167 5.83333C12.422 5.83333 11.1578 7.13917 9.99949 8.62167C8.84116 7.13917 7.57783 5.83333 5.83366 5.83333C3.53616 5.83333 1.66699 7.7025 1.66699 10C1.66699 11.1117 2.09949 12.1575 2.88283 12.945C3.66866 13.7325 4.71366 14.1667 5.82533 14.1667C5.82533 14.1667 5.83449 14.1667 5.83533 14.1667C7.57616 14.1625 8.83949 12.8567 9.99866 11.3742C11.1578 12.8592 12.422 14.1667 14.167 14.1667C16.4645 14.1667 18.3337 12.2975 18.3337 10C18.3337 7.7025 16.4645 5.83333 14.167 5.83333ZM5.83199 12.5L5.82533 13.3333V12.5C5.15949 12.5 4.53366 12.24 4.06366 11.7683C3.59283 11.2958 3.33366 10.6675 3.33366 10C3.33366 8.62167 4.45533 7.5 5.83366 7.5C6.94199 7.5 7.96699 8.69833 8.95533 9.99833C7.96533 11.2975 6.94033 12.4975 5.83199 12.5ZM14.167 12.5C13.0587 12.5 12.0328 11.3 11.0428 9.99833C12.032 8.69833 13.057 7.5 14.167 7.5C15.5453 7.5 16.667 8.62167 16.667 10C16.667 11.3783 15.5453 12.5 14.167 12.5Z" fill="#9397AD"/>
</svg>
